<svg width="1024" height="1024" viewBox="0 0 1024 1024" fill="none" xmlns="http://www.w3.org/2000/svg">
<rect width="1024" height="1024" fill="#FBAF02"/>
<mask id="mask0" mask-type="alpha" maskUnits="userSpaceOnUse" x="48" y="48" width="928" height="928">
<circle cx="512" cy="512" r="464" fill="white"/>
</mask>
<g mask="url(#mask0)">
<circle cx="254" cy="874" r="464" fill="white"/>
<path d="M189 470.3C189.7 478.467 191.45 486.05 194.25 493.05C197.05 499.817 200.667 505.767 205.1 510.9C209.767 515.8 215.133 519.65 221.2 522.45C227.5 525.25 234.383 526.65 241.85 526.65C248.383 526.65 254.567 525.95 260.4 524.55C266.467 522.917 271.717 520.583 276.15 517.55C280.817 514.283 284.55 510.2 287.35 505.3C290.15 500.167 291.55 494.1 291.55 487.1C291.55 481.5 289.917 476.717 286.65 472.75C283.617 468.55 279.533 464.933 274.4 461.9C269.5 458.867 263.783 456.3 257.25 454.2C250.717 451.867 244.183 449.65 237.65 447.55C227.85 444.517 217.933 441.25 207.9 437.75C198.1 434.25 189.233 429.7 181.3 424.1C173.367 418.5 166.833 411.5 161.7 403.1C156.8 394.7 154.35 384.2 154.35 371.6C154.35 361.1 156.333 351.767 160.3 343.6C164.5 335.433 170.333 328.667 177.8 323.3C185.267 317.7 194.133 313.5 204.4 310.7C214.9 307.9 226.333 306.5 238.7 306.5C255.033 306.5 268.683 309.067 279.65 314.2C290.617 319.333 299.367 325.867 305.9 333.8C312.667 341.733 317.567 350.483 320.6 360.05C323.633 369.617 325.5 378.833 326.2 387.7H284.55C283.85 380 282.217 373.35 279.65 367.75C277.083 361.917 273.7 357.017 269.5 353.05C265.3 349.083 260.517 346.167 255.15 344.3C250.017 342.2 244.533 341.15 238.7 341.15C233.333 341.15 228.083 341.733 222.95 342.9C217.817 343.833 213.15 345.583 208.95 348.15C204.983 350.483 201.717 353.633 199.15 357.6C196.583 361.333 195.3 366 195.3 371.6C195.3 377.2 196.817 382.1 199.85 386.3C203.117 390.5 207.317 394.233 212.45 397.5C217.583 400.533 223.417 403.217 229.95 405.55C236.483 407.883 243.133 410.1 249.9 412.2C259.7 415.233 269.5 418.617 279.3 422.35C289.1 426.083 297.85 430.867 305.55 436.7C313.483 442.3 319.9 449.183 324.8 457.35C329.933 465.517 332.5 475.433 332.5 487.1C332.5 499.467 330.167 510.317 325.5 519.65C321.067 528.75 314.767 536.45 306.6 542.75C298.667 549.05 289.1 553.717 277.9 556.75C266.933 560.017 254.917 561.65 241.85 561.65C229.95 561.65 218.4 559.55 207.2 555.35C196 551.15 185.967 545.083 177.1 537.15C168.467 529.217 161.467 519.65 156.1 508.45C150.733 497.017 147.817 484.3 147.35 470.3H189ZM398.262 316.65V357.25H358.362V316.65H398.262ZM398.262 381.05V555H358.362V381.05H398.262ZM426.429 381.05H466.329V392.95C473.095 387.583 480.095 383.733 487.329 381.4C494.795 379.067 502.029 377.9 509.029 377.9C517.195 377.9 524.895 379.65 532.129 383.15C539.362 386.65 546.012 392.367 552.079 400.3C559.079 392.133 567.245 386.417 576.579 383.15C585.912 379.65 595.012 377.9 603.879 377.9C612.512 377.9 620.329 379.3 627.329 382.1C634.562 384.9 640.745 388.75 645.879 393.65C651.012 398.55 654.979 404.383 657.779 411.15C660.812 417.917 662.329 425.267 662.329 433.2V555H622.779V439.85C622.779 434.483 621.962 430.05 620.329 426.55C618.929 422.817 617.062 419.9 614.729 417.8C612.629 415.7 610.179 414.3 607.379 413.6C604.579 412.667 601.779 412.2 598.979 412.2C595.012 412.2 591.045 413.133 587.079 415C583.112 416.867 579.495 419.433 576.229 422.7C572.962 425.967 570.279 429.933 568.179 434.6C566.079 439.033 565.029 443.933 565.029 449.3V555H525.129V439.85C525.129 434.483 524.429 430.05 523.029 426.55C521.629 422.817 519.762 419.9 517.429 417.8C515.329 415.7 512.995 414.3 510.429 413.6C507.862 412.667 505.412 412.2 503.079 412.2C497.945 412.2 493.162 413.483 488.729 416.05C484.295 418.383 480.329 421.533 476.829 425.5C473.562 429.233 470.995 433.433 469.129 438.1C467.262 442.533 466.329 446.85 466.329 451.05V555H426.429V381.05ZM154.7 615.8H249.55C262.15 615.8 273.233 617.9 282.8 622.1C292.367 626.3 300.417 631.9 306.95 638.9C313.483 645.667 318.383 653.367 321.65 662C325.15 670.4 326.9 678.917 326.9 687.55C326.9 696.65 325.15 705.633 321.65 714.5C318.383 723.133 313.483 730.833 306.95 737.6C300.417 744.133 292.25 749.5 282.45 753.7C272.883 757.667 261.917 759.65 249.55 759.65H195.65V858H154.7V615.8ZM195.65 725H249.55C254.45 725 259.117 724.067 263.55 722.2C267.983 720.1 271.833 717.417 275.1 714.15C278.367 710.65 280.933 706.683 282.8 702.25C284.9 697.583 285.95 692.567 285.95 687.2C285.95 676.7 282.45 668.067 275.45 661.3C268.683 654.533 260.05 651.15 249.55 651.15H195.65V725ZM351.468 771.2C351.468 758.833 353.218 747.167 356.718 736.2C360.218 725.233 365.352 715.667 372.118 707.5C379.118 699.333 387.635 692.917 397.668 688.25C407.702 683.35 419.252 680.9 432.318 680.9C445.385 680.9 456.935 683.35 466.968 688.25C477.235 692.917 485.752 699.333 492.518 707.5C499.518 715.667 504.768 725.233 508.268 736.2C512.002 747.167 513.868 758.833 513.868 771.2C513.868 783.567 512.002 795.233 508.268 806.2C504.768 817.167 499.518 826.733 492.518 834.9C485.752 842.833 477.235 849.133 466.968 853.8C456.935 858.467 445.385 860.8 432.318 860.8C419.252 860.8 407.702 858.467 397.668 853.8C387.635 849.133 379.118 842.833 372.118 834.9C365.352 826.733 360.218 817.167 356.718 806.2C353.218 795.233 351.468 783.567 351.468 771.2ZM391.018 771.2C391.018 778.9 391.952 786.133 393.818 792.9C395.685 799.667 398.368 805.617 401.868 810.75C405.602 815.65 410.035 819.617 415.168 822.65C420.302 825.45 426.018 826.85 432.318 826.85C438.618 826.85 444.335 825.45 449.468 822.65C454.602 819.617 458.918 815.65 462.418 810.75C466.152 805.617 468.952 799.667 470.818 792.9C472.918 786.133 473.968 778.9 473.968 771.2C473.968 763.5 472.918 756.267 470.818 749.5C468.952 742.733 466.152 736.783 462.418 731.65C458.918 726.517 454.602 722.55 449.468 719.75C444.335 716.717 438.618 715.2 432.318 715.2C426.018 715.2 420.302 716.717 415.168 719.75C410.035 722.55 405.602 726.517 401.868 731.65C398.368 736.783 395.685 742.733 393.818 749.5C391.952 756.267 391.018 763.5 391.018 771.2ZM580.016 795C580.482 806.9 583.399 815.3 588.766 820.2C594.366 825.1 601.249 827.55 609.416 827.55C612.916 827.55 616.532 827.317 620.266 826.85C623.999 826.15 627.382 825.1 630.416 823.7C633.682 822.067 636.366 820.083 638.466 817.75C640.566 815.183 641.616 812.033 641.616 808.3C641.616 805.267 640.566 802.583 638.466 800.25C636.599 797.917 634.032 795.817 630.766 793.95C627.499 791.85 623.649 790.1 619.216 788.7C615.016 787.067 610.582 785.433 605.916 783.8C598.682 781.233 591.449 778.55 584.216 775.75C576.982 772.95 570.449 769.567 564.616 765.6C559.016 761.4 554.349 756.383 550.616 750.55C547.116 744.717 545.366 737.6 545.366 729.2C545.366 721.033 547.116 713.917 550.616 707.85C554.116 701.783 558.782 696.767 564.616 692.8C570.682 688.833 577.566 685.917 585.266 684.05C592.966 681.95 601.016 680.9 609.416 680.9C618.749 680.9 627.499 682.067 635.666 684.4C643.832 686.5 650.832 689.883 656.666 694.55C662.732 699.217 667.516 705.167 671.016 712.4C674.749 719.633 676.849 728.15 677.316 737.95C676.849 737.95 675.799 737.95 674.166 737.95C672.766 737.95 671.249 737.95 669.616 737.95C667.982 737.717 666.466 737.6 665.066 737.6C663.666 737.6 662.616 737.6 661.916 737.6H637.416C636.249 728.733 632.982 722.783 627.616 719.75C622.482 716.717 616.416 715.2 609.416 715.2C601.716 715.2 595.766 716.483 591.566 719.05C587.599 721.617 585.616 725.117 585.616 729.55C585.616 734.917 588.999 739.35 595.766 742.85C602.766 746.35 610.816 749.733 619.916 753L621.666 753.7C628.666 756.267 635.782 758.95 643.016 761.75C650.249 764.55 656.666 767.933 662.266 771.9C668.099 775.867 672.766 780.65 676.266 786.25C679.999 791.617 681.866 798.15 681.866 805.85C681.866 815.65 679.882 824.05 675.916 831.05C672.182 838.05 666.932 843.767 660.166 848.2C653.632 852.633 645.932 855.9 637.066 858C628.432 860.1 619.216 861.15 609.416 861.15C600.082 861.15 591.216 859.867 582.816 857.3C574.416 854.5 567.066 850.417 560.766 845.05C554.466 839.45 549.332 832.567 545.366 824.4C541.632 816 539.649 806.2 539.416 795H580.016Z" fill="#100B00"/>
<circle cx="837" cy="184" r="81" fill="white"/>
</g>
</svg>
