<svg xmlns="http://www.w3.org/2000/svg" xmlns:xlink="http://www.w3.org/1999/xlink" width="70" height="70" viewBox="0 0 70 70"><defs><path id="a" d="M4 0h61c4 0 5 1 5 5v60c0 4-1 5-5 5H4c-3 0-4-1-4-5V5c0-4 1-5 4-5z"/><linearGradient id="c" x1="98.162%" x2="0%" y1="1.838%" y2="100%"><stop offset="0%" stop-color="#797DA5"/><stop offset="50.799%" stop-color="#6D7194"/><stop offset="100%" stop-color="#626584"/></linearGradient></defs><g fill="none" fill-rule="evenodd"><mask id="b" fill="#fff"><use xlink:href="#a"/></mask><g mask="url(#b)"><path fill="url(#c)" d="M0 0H70V70H0z"/><path fill="#FFF" fill-opacity=".383" d="M4 1h61c2.667 0 4.333.667 5 2V0H0v3c.667-1.333 2-2 4-2z"/><path fill="#393939" d="M32.008 69H4c-2 0-4-1-4-4V35.936l11.093-11.422L15.61 19 33 13h4l18 6 3.928 5.93-4.884 5.147-.077 12.337L32.008 69z" opacity=".324"/><path fill="#000" fill-opacity=".383" d="M4 69h61c2.667 0 4.333-1 5-3v4H0v-4c.667 2 2 3 4 3z"/><path fill="#000" d="M40 39h1v5h-2v-5h1zm-7 0h1v5h-2v-5h1zm-3 0h1v5h-2v-5h1zm4 16h-.38a.293.293 0 0 1-.145-.04l-18.24-10.322c-.142-.08-.235-.27-.235-.481V30.589c0-.168.059-.325.159-.423.1-.098.227-.123.343-.07 0 0 12.918 6.018 13.27 6.185.297.139.488-.212.488-.212l4.065-6.876C33.426 29.021 34 29 34 29h1s.574.021.675.193l4.065 6.876s.191.35.487.211c.353-.166 13.27-6.184 13.27-6.184.117-.054.245-.028.344.07.1.098.159.255.159.423v13.568c0 .21-.093.4-.235.48L35.525 54.96a.292.292 0 0 1-.145.04H34zM22 38v7h25v-7H22zm2 6v-5h1v5h-1zm3 0v-5h1v5h-1zm8 0v-5h1v5h-1zm2 0v-5h1v5h-1zm5 0v-5h1v5h-1zm2 0v-5h1v5h-1zm14.925-17.582a.518.518 0 0 1 .058.402.423.423 0 0 1-.24.292L41.708 33.97a.325.325 0 0 1-.121.024.359.359 0 0 1-.294-.166l-4.769-6.972-1.413.461-.021.005v.001a.32.32 0 0 1-.2 0l-1.414-.461-4.769 6.972a.36.36 0 0 1-.294.166.325.325 0 0 1-.121-.024l-17.035-6.858a.423.423 0 0 1-.24-.292.518.518 0 0 1 .058-.402l3.466-5.494a.384.384 0 0 1 .2-.163l20.146-6.747a.39.39 0 0 1 .226-.006l20.146 6.747c.08.027.15.084.2.163l3.466 5.494zM35.01 25.413l14.426-4.688L35.01 15.92l-14.447 4.81 14.447 4.682z" opacity=".3"/><path fill="#FFF" d="M40 37h1v5h-2v-5h1zm-7 0h1v5h-2v-5h1zm-3 0h1v5h-2v-5h1zm6 6h11v-7H36v-9h.9s.516.021.608.193l3.658 6.876s.172.35.438.211c.318-.166 11.944-6.184 11.944-6.184.104-.054.22-.028.31.07.089.098.142.255.142.423v13.568c0 .21-.083.4-.211.48L37.373 52.96a.243.243 0 0 1-.131.04H36V43zm-2-7H22v7h12v10h-.38a.293.293 0 0 1-.145-.04l-18.24-10.322c-.142-.08-.235-.27-.235-.481V28.589c0-.168.059-.325.159-.423.1-.098.227-.123.343-.07 0 0 12.918 6.018 13.27 6.185.297.139.488-.212.488-.212l4.065-6.876C33.426 27.021 34 27 34 27v9zm-10 6v-5h1v5h-1zm3 0v-5h1v5h-1zm8 0v-5h1v5h-1zm2 0v-5h1v5h-1zm5 0v-5h1v5h-1zm2 0v-5h1v5h-1zm14.925-17.582a.518.518 0 0 1 .058.402.423.423 0 0 1-.24.292L41.708 31.97a.325.325 0 0 1-.121.024.359.359 0 0 1-.294-.166l-4.769-6.972-1.413.461-.021.005v.001a.32.32 0 0 1-.2 0l-1.414-.461-4.769 6.972a.36.36 0 0 1-.294.166.325.325 0 0 1-.121-.024l-17.035-6.858a.423.423 0 0 1-.24-.292.518.518 0 0 1 .058-.402l3.466-5.494a.384.384 0 0 1 .2-.163l20.146-6.747a.39.39 0 0 1 .226-.006l20.146 6.747c.08.027.15.084.2.163l3.466 5.494zM35.01 23.413l14.426-4.688L35.01 13.92l-14.447 4.81 14.447 4.682z"/></g></g></svg>