<svg width="1024" height="1024" viewBox="0 0 1024 1024" fill="none" xmlns="http://www.w3.org/2000/svg">
<rect width="1024" height="1024" rx="155" fill="#1FB886"/>
<path d="M465.373 577.584C432.311 577.584 403.26 599.516 394.203 631.314L355.214 768.21C347.497 795.305 322.743 813.993 294.571 813.993V813.993C252.99 813.993 222.793 774.449 233.743 734.335L330.34 380.436C357.647 280.395 448.523 211 552.223 211L733.892 211C773.657 211 802.914 248.251 793.492 286.883V286.883C786.79 314.359 762.174 333.693 733.892 333.693L552.53 333.693C507.531 333.693 467.786 363.021 454.515 406.019V406.019C447.023 430.295 465.171 454.89 490.577 454.89L666.561 454.89C706.326 454.89 735.583 492.141 726.16 530.773V530.773C719.459 558.249 694.842 577.584 666.561 577.584H465.373Z" fill="white"/>
</svg>
